<?xml version="1.0" encoding="UTF-8" standalone="no"?>
<!-- Generator: Adobe Illustrator 22.0.1, SVG Export Plug-In . SVG Version: 6.00 Build 0)  -->

<svg
   xmlns:dc="http://purl.org/dc/elements/1.1/"
   xmlns:cc="http://creativecommons.org/ns#"
   xmlns:rdf="http://www.w3.org/1999/02/22-rdf-syntax-ns#"
   xmlns:svg="http://www.w3.org/2000/svg"
   xmlns="http://www.w3.org/2000/svg"
   xmlns:sodipodi="http://sodipodi.sourceforge.net/DTD/sodipodi-0.dtd"
   xmlns:inkscape="http://www.inkscape.org/namespaces/inkscape"
   version="1.1"
   id="Calque_1"
   x="0px"
   y="0px"
   viewBox="0 0 432 432"
   style="enable-background:new 0 0 432 432;"
   xml:space="preserve"
   sodipodi:docname="title.svg"
   inkscape:version="0.92.2 (5c3e80d, 2017-08-06)"><metadata
     id="metadata47"><rdf:RDF><cc:Work
         rdf:about=""><dc:format>image/svg+xml</dc:format><dc:type
           rdf:resource="http://purl.org/dc/dcmitype/StillImage" /></cc:Work></rdf:RDF></metadata><defs
     id="defs45" /><sodipodi:namedview
     pagecolor="#ffffff"
     bordercolor="#666666"
     borderopacity="1"
     objecttolerance="10"
     gridtolerance="10"
     guidetolerance="10"
     inkscape:pageopacity="0"
     inkscape:pageshadow="2"
     inkscape:window-width="1280"
     inkscape:window-height="960"
     id="namedview43"
     showgrid="false"
     inkscape:zoom="1.0925926"
     inkscape:cx="254.48373"
     inkscape:cy="283.94468"
     inkscape:window-x="0"
     inkscape:window-y="30"
     inkscape:window-maximized="1"
     inkscape:current-layer="Calque_1" /><style
     type="text/css"
     id="style2">
	.st0{fill:#BE1622;}
	.st1{fill:#EC605F;}
	.st2{fill:#A11916;}
	.st3{fill:#F4A7A5;}
	.st4{fill:#EF7D80;}
	.st5{fill:#3C3C3B;}
	.st6{fill:#FFFFFF;}
	.st7{fill:#EB9D9B;}
</style><g
     id="g40"><g
       id="g10"><path
         d="M376.8,318.9c-1.9-0.1-4.8,8.1-10,15.2c-0.9,1.2-2.6,3.3-3.9,3.7c-1.5-1.7-1.3-7.9-1.2-10.2c0.5-12.2,4.9-27.9,5.1-33.4    c0.3-8.2-5.8-8.1-10.4-8.7c-2.4-0.3-0.1-0.5-2-7.7c-2.2-8.4-7.6-12-11.8-12.2c-5.4-0.2-7.2,3.7-7.3,6.5c-0.3,7.6,8.6,12.3,16,14.6    c0.7,0.2,0.8,0.3,0.7,0.9c-0.6,14.7-13.2,35.6-23.5,35.1c-6.9-0.3-10.5-13.9-10.1-23.3c0-0.8,0.1-1.6,0.2-2.4    c0.1-1.1,0-0.6,3.1-0.8c5.3-0.4,9.5-2.6,9.7-7.7c0.2-4.8-4.4-9-8.7-9.2c-8.9-0.4-13,10.3-13.4,19.7c-0.1,1.9,0,4.7,0,4.7    c-0.1,3.1-7.3,29.8-9.9,29.6c-0.4,0-1.4-1.5-2-3c-3.4-9-2.8-23.2-2.2-37.3c0.6-13.7-0.6-9.5,7.7-12c0.6-0.2,1.7-0.4,1.7-1.2    c0-0.5-0.6-1.3-1.8-1.3c-1.5-0.1-5.6,0.8-6.5,0.8c0,0-0.1,0-0.1,0c1.2-9.5,2.1-16.9,2.3-20c0.1-2.2,0.6-6.8-3-7    c-6.8-0.3-7.7,28.4-9.3,28.6c-14.9,1.4-16.1,1.9-16.1,3c0,0.3,0.2,0.6,0.6,0.9c0.3,0.2,1.1,0.5,2.1,0.5c2.3,0.1,13-1.2,13.5-1.3    c-1.2,3.9-17,52.9-21.4,52.7c-0.5,0-1.1-1.7-1-4.6c0.3-6,3.7-15.5,4-23.7c0.2-5.1-1.4-9.1-6.3-9.4c-5.1-0.2-10.3,5.4-13.4,9.4    c0-0.8,0-1.6,0.1-2.4c0.5-12.8,5.5-28.9,6.9-28.8c0,0,0.1,0,0.1,0c12.7,0.5,22.8-10.3,23.1-17.2c0.2-4.9-3.8-8.1-8.1-8.3    c-13.9-0.6-23.8,21.3-23.8,21.3c-10.6-0.5-32.2-22.9-49.5-23.6c-2.3-0.1-4.6,0.1-6.8,0.9c-0.5,0.2-0.9,0.2-1.2,0.2    c-0.6,0-1.1-0.2-1.7-0.6c-4.1-2.6-8.5-3.7-13.1-3.9c-19.9-0.8-38.2,16-38.7,27c-0.1,1.4,0.1,2.8,1.4,2.9c0.9,0,1.3-0.4,1.4-1.3    c0,0,0-0.4,0-0.6c0.5-10.7,19.1-25.6,36.2-24.9c6.4,0.3,10.3,2.7,11,3.4c-4.6,3.6-8.1,8.2-8.3,14c-0.2,4.6,2.5,8.4,7,8.6    c6.1,0.3,10.6-5.8,10.9-12c0.3-6.4-3.6-9.5-3.7-10.2c1.9-0.6,3.7-0.8,5.7-0.7c13.8,0.6,25.4,15.5,46.6,22.7    c0.7,0.2,1.4,0.4,2.1,0.7c-0.2,0.9-5.9,14.1-6.5,28.1c-0.1,3.4,0.5,21.4,5.9,21.7c2,0.1,3.3-1,3.4-3.3c0-1-0.4-4.9-0.4-5.6    c0.2-4.5,8.3-14.2,12.4-14c0.5,0,0.4,0.4,0.4,1.7c-0.1,2.8-3.7,13.7-4,20.9c-0.2,5.7,1,14.5,6.8,14.8c9.5,0.4,14.7-26.2,22.2-45.3    c0.1,0.5,0.1,0.9,0.1,1.3c0,0,0,0.1,0,0.2c-0.8,19.7,5.2,39.9,13,40.2c7,0.3,11.1-23.6,11.7-23.8c0,0,0.1,0.1,0.1,0.1    c2.5,8,7.6,14,15.9,14.4c13.4,0.6,26.3-18.5,28.7-38.7c0-0.2,0.1-0.3,0.3-0.3c0.1,0,3.2,0.8,3.3,0.8c0.3,0.1,0.5,0.3,0.5,0.5    c0,0.4-5.6,21.7-6,31.6c-0.4,8.7,3.2,19.7,9.3,20c6.9,0.3,15.6-20.2,15.7-21C378,319.2,377.5,318.9,376.8,318.9z M324.2,283.2    c1.4,0.1,4,2.1,3.9,5.1c-0.2,4-3.3,5.3-7.2,5.4c-0.2,0-0.5,0-0.6,0c-0.9,0-1.2-0.1-1.2-0.6C319.1,291.9,321.7,283.1,324.2,283.2z     M272,255.6c2.4,0.1,3,2.5,2.9,4.1c-0.2,5.6-8.4,14.9-19.3,14.9C258.2,268.1,265,255.3,272,255.6z M190.4,263.1    c-0.2,5.1-3.9,9.5-6.7,9.3c-2-0.1-3.4-2.5-3.3-5.9c0.3-7.2,6.8-11.9,7.3-11.9C188.1,254.6,190.6,257.7,190.4,263.1z M351.9,283.9    c0,0.2,0,0.4,0,0.5c-0.1,0-0.2,0-0.3,0c-2.7-0.1-13.3-5.1-13-11.7c0.1-2.8,2-4.5,4.1-4.4C348.5,268.5,352.2,278,351.9,283.9z"
         id="path4" /><path
         d="M233.4,289.2c-3.7-0.2-5.4,7.9-5.6,8.3c-0.4-0.2-0.5-0.5-0.6-0.7c-2.3-3.3-5.4-5.8-9.4-6c-8.6-0.4-14.1,9.6-14.5,18.5    c0,0,0,0.1,0,0.1c-0.1,2.8-8.3,21-9.9,22.3c-0.1-0.8-0.2-1.5-0.1-2.2c0.6-14.2,4.7-26,4.9-30.9c0.1-2.2-0.1-4.6-2.7-5.4    c-0.3-0.1-0.7-0.2-1-0.2c-1.5-0.1-2.1,1-3.5,3c-6.6,9.8-13.9,25.3-17.4,25.1c-0.9,0-2.8-3-3.3-6.7c-0.3-2.6-0.5-7.4-0.4-10.6    c0.3-6.2,1.3-10.1,1.4-12.6c0.1-2.3-0.6-3.9-3.1-4c-5.1-0.2-7.1,11.2-7.3,16.3c0,0.5,0,1.2,0,1.2c-0.1,1.6-10.8,35.7-13.2,35.6    c-1,0-1.8-4.3-1.6-9.1c0.6-15,4.8-25.8,6.7-31.4c0.5-1.6,1.1-3.2,1.2-4.9c0.1-3.2-2.6-3.9-3.7-4c-2-0.1-3,1.6-3.8,2.8    c-0.5-0.2-3.4-5-9.9-5.2c-9.6-0.4-16.2,10-16.6,18.8c-0.4,9.8,4.7,13.8,8.3,14c6.5,0.3,10.4-10.8,11.7-11.3c0,0.1,0,0.2,0,0.3    c0,0-2.1,8.2-2.4,13.4c-0.3,6.6,2.1,19.8,8.7,20c8.7,0.4,12.6-27.6,15.3-31.4c1,2.8,3.3,12.1,10.2,12.4    c8.2,0.3,13.2-15.3,15.4-16.8c-0.3,1.6-1.8,8-2.1,13.1c-0.2,5.4,0.8,15.3,6.5,15.5c7.4,0.3,11.5-19.2,12.8-20.3    c0.4,0.4,2,5,7.4,5.2c7.5,0.3,11.6-8.1,14.3-12.1c0.1,0.2,0.1,0.4,0.1,0.6c-0.8,19.1-10.5,55.9-26.5,55.3    c-3.7-0.2-6.9-2.9-6.7-7.8c0.5-11.6,16.8-15.9,18.2-17.9c0.1-0.2,0.2-0.4,0.2-0.6c0-0.6-0.6-0.9-1.1-0.9c-0.7,0-8.3,4.1-8.7,4.3    c-5.7,3.2-11.2,9-11.5,15.4c-0.3,6.6,4.6,10.4,10,10.6c9.3,0.4,24.5-8.1,31-32.7c2.3-8.7,4.3-19.3,5.2-38.5    c0.1-1.7,0.1-3.5,0.2-5.2C236.4,290.3,234.8,289.2,233.4,289.2z M131.6,316.7c-0.9,0.9-1.9,1.6-2.4,1.6c-1.6-0.1-1.6-5.1-1.7-6.3    c1.6-13.9,8.4-17.8,11.1-17.7c2.7,0.1,4.9,3.7,4.9,4.3C143.5,298.7,133.4,314.9,131.6,316.7z M213,318.1c-0.6,0-1-0.3-1.2-1.1    c-0.4-1.3-0.7-2.6-0.6-3.9c0.3-7.2,4.4-17.5,8.1-17.3c2.2,0.1,6.8,5.5,6.6,8C225.9,304.7,218.3,318.3,213,318.1z"
         id="path6" /><path
         d="M109.3,227.8c-16.6-0.7-39,29-44.9,88.8c-0.5-2.5-1.4-12-1-22.9c1.1-25.6,7.8-44.6,8.1-53.1c0.1-2.6-0.1-5.1-2.8-5.2    c-6.4-0.3-13.8,38-14.6,58.6c-1.2,28.8,8.8,51.2,12.2,51.4c1.3,0.1,2.4-0.7,2.4-2c0,0-2.2-9.3-1.5-26.6    c2.3-53.3,27.2-85.1,40.6-84.5c0.9,0,1.7,0.3,2.4,1c5.7,5.5,5.8,19.4,5.4,27.5c-1.6,37.5-21.1,76.8-31.1,76.3    c-3.6-0.2-5.9-5.5-5.7-9.4c0.1-3.3,1.4-5.2,3.7-9.9c0.1-0.2,0.2-0.4,0.2-0.5c0-0.6-0.7-0.9-1.2-0.9c-1.4-0.1-2.1,1.6-4.1,5.1    c-1.2,2.1-1.8,4.2-1.9,6.3c-0.2,5.3,3.2,12.1,9.1,12.3c16.4,0.7,38.4-35.6,40.2-78.1C125.5,248,123.4,228.4,109.3,227.8z"
         id="path8" /></g><g
       id="g16"><path
         d="M322.1,138.2c-1.5-0.1-1.2,0.4-8.2,11.1c-3.8,5.9-10.2,13.9-17.4,13.6c-3.1-0.1-5.6-1.7-7.1-5.1    c-2.6-5.8-4.1-10.9-3.8-17.2c0.2-4.5-0.3-3,4.9-4c6-1.2,10.7-4.4,11-10.1c0.3-5.8-4-9.1-8.2-9.3c-5.8-0.3-12.9,4.2-15.8,16    c-0.1,0.3-0.1,0.5-0.4,0.5c-0.4,0-3.3-1.1-5.7-2.8c-0.3-0.2-0.4-0.4-0.4-0.7c0,0,0.7-3.8,0.9-7.5c0.3-5.5-0.5-12.8-6-13    c-3.6-0.2-6.2,3.6-6.4,7.5c-0.3,5.3,3.2,10.5,7.2,13.8c0.4,0.3,0.6,0.6,0.6,1.1c-0.1,2.1-8.5,37.8-11.2,41.8    c-0.4-0.4-4.8-12.3-4.3-38c0.1-4.5-0.5-9.8-5.2-10c-1.2-0.1-2.1,0.4-2.4,1.5c-1.6,6.4-8,15.4-10,16.5c0-0.5,0-0.9,0.1-1.3    c0.6-12.4-6-18.3-14.7-18.7c-12.1-0.6-18.6,7.8-19,14.5c-0.2,3.4,0.9,6.5,3.6,9.1c0.3,0.3,0.4,0.5,0.4,0.7    c0,0.4-8.9,19.9-14.6,19.6c-5.4-0.3-9-16.5-9-17c0,0,23.7-28,25.1-57.5c0.7-14.7-5.9-20.1-11.3-20.3    c-17.7-0.8-23.5,33.1-24.4,51.1c-0.9,19.3,2.4,30.2,2.4,30.2c-0.1,1.9-23.1,23.2-23.2,24c0,0.6,0.9,1.1,1.5,1.2    c0.3,0,0.7-0.1,1-0.3c6.4-4.9,16.6-15.3,22-20.9c0.2,0.2,0.1,0,0.5,0.9c2.8,5.7,8.2,11.7,14.5,12c10.3,0.5,15.4-19,17.5-20.2    c0,0.4,0,0.7-0.1,1c-0.6,12.7,5.4,18,11.2,18.3c8.7,0.4,13.9-12.1,15.6-20.5c0.8-4.3,2.5-1.8,9.2-11.4c0.2-0.3,0.3-0.6,0.7-0.7    c0.1,0.2,0.1,0.3,0.1,0.5c0,0-0.1,0.5-0.2,2.8c-0.6,12,0.6,38.9,12.3,39.5c7.4,0.4,13.5-41.1,15.2-46.6c0,0,0,0,0,0    c0.3,0,0.5,0.2,0.8,0.3c5,2.7,5.6,1.8,5.6,2.9c0,0-0.2,1.8-0.3,3.2c-0.6,13.2,5.4,25.3,18.3,25.9c16,0.8,28.5-26.4,28.5-26.8    C323.5,138.7,322.8,138.2,322.1,138.2z M295.4,121.5c1.7,0.1,2.6,2.7,2.5,4.4c-0.3,7.1-10.4,8.4-11.1,8.3c0,0-0.1,0-0.2-0.1    C287.7,130.1,291.5,121.3,295.4,121.5z M180.1,145.7c-0.4-1.3-1.3-11.1-0.8-21.6c0.7-14.3,6.8-47.2,18-46.7    c2.8,0.1,6.3,5.1,5.8,15C201.9,118.2,181.9,145.2,180.1,145.7z M219.2,165.5c-1,0-4-6.1-3.7-12.6c0-0.5,0.3-0.6,0.6-0.6    c0,0,0.7,0.1,1.2,0.1c5.9,0.3,10.4-1.7,12.1-2.3C228.6,155.4,222.8,165.7,219.2,165.5z M230.9,140.9c-0.1,1.7-0.3,3.5-0.6,5.2    c-0.3,2-8.1,4-13.2,3.7c-1.3-0.1-1.4,0-1.3-0.5c0.1-1.1,0.7-5.9,0.7-7c0.2-4.8-2.2-6.5-4.6-6.7c-3.6-0.2-3.3,4.4-4.2,6.3    c-0.4,0.9-0.9,1.8-1.5,2.9c-1.2-1.8-1.7-3.7-1.6-5.6c0.4-8,8-13,15.6-12.7C228.1,127,231.3,132.9,230.9,140.9z M268.6,122.3    c-0.1,1.7-0.3,3.3-0.5,4.9c0,0.1,0,0.3-0.3,0.4c-2.4-2.7-4.1-5.9-3.9-9.4c0.2-3.7,2.2-5.4,2.8-5.4    C267.6,112.8,268.9,116.3,268.6,122.3z"
         id="path12" /><path
         d="M148,146.9c-0.9,0-1.8-0.2-2.7-0.3c-0.1,0.4-1.4,39.6-23.8,39.6c-6.2,0-12.1-4.6-12.1-12.5c0-6.5,3.8-10.8,6.9-15.3    c1-1.4,1.5-2.3,2.5-2.3c0.4,0,1.3,0.2,1.3,0.9c0,0.2,0,0.3-0.1,0.5c-1.4,3.2-7.9,8.5-7.9,16.1c0,5,3.1,9.6,9.1,9.6    c13.4,0,14.9-25.9,14.9-39.2c0-0.8-0.2-1.3-1-1.7c-9.9-5.5-19.1-15.4-19.1-26.6c0-10.4,7.4-19.8,19.4-34.5    c1.2-1.5,2.2-17.5,8.6-17.5c1.4,0,3,1,3,2.4c0,0-2.8,10.3-2.8,29.1c0,11.2,1.2,34.8,1.2,45c0,1.4,0,2.5,0,2.5    c0,0.5,0.2,0.8,0.7,0.9c0.8,0.2,1.6,0.5,2.5,0.5c0.3,0,0.7-0.1,0.8-0.1c0.6,0,1.7,0.5,1.7,1.3C150.8,146.5,149.1,146.9,148,146.9z     M135,89.9c0-0.9,0-1.9,0-2.9c-0.4,0.3-15.4,17-15.4,28.6c0,12.8,14.9,23.1,16.2,23.1c0.1,0,0.1,0,0.2-0.1c0-0.2,0-0.4,0-0.6    c0-5.9-1.1-27.9-1.1-39.8C134.8,93.2,135,92,135,89.9z"
         id="path14" /></g><g
       id="g22"><path
         d="M216.9,185.4c0-1.7,0.1-5-3.4-5.4c-0.1,0-0.2,0-0.4,0c-0.9,0-1.6,0.4-1.9,1.2c-0.8,2.2-17.3,26.1-17.7,26.3    c-0.2-0.2-0.3-0.5-0.4-0.7c-2.9-5.9-15.1-26.5-21.7-26.5c-1.3,0-2.1,0.8-2.1,2c0,0,5.1,14.9,5.9,47.7c0.1,4.6,0,6.8,2.4,6.8    c1.8,0,2.6-1.4,2.6-9.7c0-15.7-3.7-33-3.7-33c0-0.1,0-0.2,0.1-0.3c0.3,0.2,3.6,5.4,5.9,8.9c1.7,2.6,6.6,9.3,10.4,9.3    c3.3,0,2.5-2,15.4-20.1c0.1-0.2,0.2-0.5,0.5-0.6c0,0.1,0.1,0.1,0.1,0.2c0,0-1.5,9.9-1.5,23.1c0,5.9,1.1,30.5,7.1,30.5    c1.7,0,2.7-1,2.8-1.9c0.1-0.7,0.2-1.4,0.2-2.1c0,0-2.2-9.6-2.2-24.9C215.3,203.3,216.9,194.3,216.9,185.4z"
         id="path18" /><path
         d="M256.6,192.3c-4.3,0-1.1,4.5-10.5,18c-1,1.5-3,3.9-4.8,3.9c-1.8,0-5-2.2-6.2-6.6c-3.6-13.8-0.1-26.3-6.4-26.3    c-3.4,0-3.7,7.4-3.7,10.7c0,17.4,8.8,24.8,16.2,24.8c5.5,0,8.2-5.5,12.5-13.5c0.1,0,0.1,0,0.2,0c0.2,4.6,0.5,7.5,0.5,15.5    c0,9.3,0.2,26.5-9.7,31.7c-0.8,0.4-1.6,0.7-2.4,0.7c-4.6,0-7.4-6.6-7.4-11.7c0-3.9,1.9-7.6,1.9-9.1c0-1-1.1-1.2-1.6-1.2    c-2.6,0-3.9,7.8-3.9,10.5c0,7,4,14.8,10.9,14.8c6,0,14.5-5.7,18.5-18.9c2-6.8,3.1-16,3.1-21C263.8,206.3,263.4,192.3,256.6,192.3z    "
         id="path20" /></g><g
       id="g30"><path
         class="st0"
         d="M86.1,201.8c0.2,0,0.4,0,0.6-0.1c-2-1.4-11.4-7.6-11.4-12.7c0-2.1,1.4-4.8,5.5-4.8c14,0,32.8,25.8,64.9,25.8    c3.7,0,9-0.2,12.9-1.1c0.4-0.1,1.4-0.2,1.6-0.2c1.1,0,1.5,1.1,1.5,1.8c0,5.3-48.4,8-56.3,8c-16.5,0-45.4-4.5-45.4-12.2    c0-4.9,8-5.6,13-5.6C77.7,200.8,86.1,201.8,86.1,201.8z"
         id="path24" /><path
         class="st0"
         d="M139.7,241.2c-0.8-0.1-6.6,0.1-6.6-4.9c0-9.7,25.5-15.3,28-15.3c1.5,0,2.3,1,2.3,2.2c0,1.9-5.2,9.2-11.6,13.6    C145.2,241.2,140.2,241.1,139.7,241.2z"
         id="path26" /><path
         class="st0"
         d="M132,190.4c0-2.1,1.7-4.2,5-4.2c8.8,0,24,16.4,24,17.5c0,0.6-0.9,2.3-2.3,2.3    C155.4,206,132.1,197.7,132,190.4z"
         id="path28" /></g><g
       id="g38"><path
         class="st0"
         d="M343.8,201.8c-0.2,0-0.4,0-0.6-0.1c2-1.4,11.4-7.6,11.4-12.7c0-2.1-1.4-4.8-5.5-4.8    c-14,0-32.8,25.8-64.9,25.8c-3.7,0-9-0.2-12.9-1.1c-0.4-0.1-1.4-0.2-1.6-0.2c-1.1,0-1.5,1.1-1.5,1.8c0,5.3,48.4,8,56.3,8    c16.5,0,45.4-4.5,45.4-12.2c0-4.9-8-5.6-13-5.6C352.2,200.8,343.8,201.8,343.8,201.8z"
         id="path32" /><path
         class="st0"
         d="M290.2,241.2c0.8-0.1,6.6,0.1,6.6-4.9c0-9.7-25.5-15.3-28-15.3c-1.5,0-2.3,1-2.3,2.2c0,1.9,5.2,9.2,11.6,13.6    C284.8,241.2,289.7,241.1,290.2,241.2z"
         id="path34" /><path
         class="st0"
         d="M297.9,190.4c0-2.1-1.7-4.2-5-4.2c-8.8,0-24,16.4-24,17.5c0,0.6,0.9,2.3,2.3,2.3    C274.5,206,297.8,197.7,297.9,190.4z"
         id="path36" /></g></g><text
     xml:space="preserve"
     style="font-style:normal;font-weight:normal;font-size:40px;line-height:1.25;font-family:sans-serif;letter-spacing:0px;word-spacing:0px;fill:#000000;fill-opacity:1;stroke:none"
     x="241.62711"
     y="379.83051"
     id="text51"><tspan
       sodipodi:role="line"
       id="tspan49"
       x="241.62711"
       y="379.83051">Kali Jo</tspan></text>
<flowRoot
     xml:space="preserve"
     id="flowRoot53"
     style="font-style:normal;font-weight:normal;font-size:40px;line-height:1.25;font-family:sans-serif;text-align:center;letter-spacing:0px;word-spacing:0px;text-anchor:middle;fill:#000000;fill-opacity:1;stroke:none"
     transform="translate(116.23729,-135.45763)"><flowRegion
       id="flowRegion55"
       style="text-align:center;text-anchor:middle"><rect
         id="rect57"
         width="100.84407"
         height="103.38304"
         x="187.62712"
         y="217.83051"
         style="text-align:center;text-anchor:middle" /></flowRegion><flowPara
       id="flowPara59">Kali Jo</flowPara></flowRoot><text
     xml:space="preserve"
     style="font-style:normal;font-weight:normal;font-size:40px;line-height:1.25;font-family:sans-serif;letter-spacing:0px;word-spacing:0px;fill:#000000;fill-opacity:1;stroke:none"
     x="455.7966"
     y="175.72881"
     id="text71"><tspan
       sodipodi:role="line"
       id="tspan69"
       x="455.7966"
       y="211.11943"></tspan></text>
</svg>